<svg xmlns:xlink="http://www.w3.org/1999/xlink" xmlns="http://www.w3.org/2000/svg" height="40" viewBox="0 0 177 40" width="177"><linearGradient id="a" x1="-15.861%" x2="124.048%" y1="49.999%" y2="49.999%"><stop offset="0" stop-color="#00cd87"/><stop offset="1" stop-color="#00c8d6"/></linearGradient><mask id="b" fill="#fff"><path d="M14.069 2.164c-.54.322-1.052.626-1.473.8-.46.19-1.062.348-1.7.515-1.605.42-3.602.941-5.16 2.5-1.56 1.557-2.082 3.552-2.502 5.155-.166.638-.324 1.24-.515 1.701-.174.418-.477.929-.798 1.468C1.064 15.745 0 17.535 0 19.815c0 2.281 1.064 4.07 1.919 5.51.322.541.626 1.052.8 1.472.191.46.349 1.063.515 1.7.42 1.603.942 3.598 2.501 5.157 1.56 1.557 3.555 2.078 5.159 2.498.642.168 1.243.325 1.702.516.42.174.932.477 1.473.798 1.44.855 3.232 1.919 5.513 1.919 2.283 0 4.075-1.064 5.514-1.919.544-.322 1.055-.625 1.472-.798.46-.191 1.061-.348 1.697-.515 1.61-.42 3.606-.942 5.164-2.5 1.56-1.558 2.082-3.552 2.502-5.155.166-.638.325-1.24.516-1.7.174-.42.478-.932.8-1.472.854-1.44 1.918-3.23 1.918-5.51s-1.064-4.07-1.918-5.508c-.322-.542-.626-1.054-.8-1.473-.191-.46-.35-1.063-.516-1.7-.42-1.605-.943-3.599-2.502-5.156-1.558-1.559-3.554-2.08-5.159-2.5-.638-.166-1.24-.325-1.701-.515-.42-.174-.932-.478-1.473-.8-1.44-.854-3.231-1.917-5.514-1.917-2.281 0-4.072 1.063-5.513 1.917m-1.947 10.84c-.263-.066-.532-.152-.735-.334-.84-.751.534-1.272 1.109-1.412 2.876-.694 5.836-1.017 8.793-1.057 1.607-.02 3.229.043 4.79.425.701.172 1.403.418 1.965.874.273.222.518.514.563.863.043.349-.188.746-.537.779a1.165 1.165 0 01-.362-.045c-.188-.043-.372-.087-.524.017-.192.13-.194.41-.14.636.322 1.315 1.795 2.077 2.201 3.37.054.17.08.372-.032.51-.093.113-.25.145-.394.17-.672.113-1.35.228-2.031.2-.682-.027-1.376-.208-1.911-.63-.781-.615-1.114-1.632-1.738-2.405-.673-.835-1.666-1.35-2.713-1.616a6.659 6.659 0 00-.626-.128c-1.268-.203-2.561-.102-3.844-.028-.509.03-1.021.054-1.532.054-.777 0-1.55-.057-2.302-.244m2.357 6.782c-.368-.101-.754-.229-1.002-.52-.487-.57-.274-1.629.176-2.158.505-.592 1.363-.81 2.092-.953 1.297-.255 2.62-.37 3.94-.344.545.012 1.122.057 1.567.374.515.367.736 1.014.926 1.617.035.11.07.225.077.339a.56.56 0 01-.015.178c-.042.162-.167.289-.291.4-.977.878-2.27 1.355-3.577 1.485-.274.028-.548.04-.822.04-1.035 0-2.07-.182-3.07-.458m16.275 4.657a.492.492 0 01-.21-.1c-.358-.25-.7-.538-.932-.909-.668-1.07-.607-2.915.394-3.744a.39.39 0 01.187-.1c.101-.014.197.044.278.108.75.582 1.014 1.587 1.16 2.526.046.302.086.61.069.914-.006.1-.018.2-.04.3-.08.398-.313.786-.682.957a.437.437 0 01-.187.05c-.012 0-.024 0-.037-.002m-7.114.456a3.527 3.527 0 01-.775-.082 28.55 28.55 0 01-1.721-.456 2.79 2.79 0 01-.701-.331c-.214-.139-.302-.367-.285-.629.014-.194.022-.389.033-.594 0-.184.006-.379-.001-.574-.01-.271.07-.518.267-.696a3.42 3.42 0 01.674-.498c.597-.318 1.207-.61 1.815-.905.54-.262 1.099-.317 1.673-.127.448.148.893.301 1.337.46.528.188.846.54.86 1.125.006.339.015.677.03 1.015.024.577-.255.979-.739 1.249-.474.264-.958.51-1.438.763-.32.17-.66.28-1.02.28h-.009m2.586 5.104c-.413-.204-.814-.434-1.222-.648-.405-.212-.56-.544-.443-.983.134-.505.27-1.01.413-1.511.124-.438.41-.76.789-.986a46.42 46.42 0 011.821-1.026c.38-.204.764-.21 1.124.074.226.178.457.348.69.516.393.28.497.679.442 1.126a35.37 35.37 0 01-.234 1.565c-.082.48-.324.86-.756 1.102-.433.244-.867.486-1.302.725a2.07 2.07 0 01-.763.235c-.187-.061-.385-.102-.559-.19" fill="#fff" fill-rule="evenodd"/></mask><mask id="c" fill="#fff"><path d="M0 39.385h176.567V.247H0z" fill="#fff" fill-rule="evenodd"/></mask><g fill="none" fill-rule="evenodd"><path d="M14.069 2.164c-.54.322-1.052.626-1.473.8-.46.19-1.062.348-1.7.515-1.605.42-3.602.941-5.16 2.5-1.56 1.557-2.082 3.552-2.502 5.155-.166.638-.324 1.24-.515 1.701-.174.418-.477.929-.798 1.468C1.064 15.745 0 17.535 0 19.815c0 2.281 1.064 4.07 1.919 5.51.322.541.626 1.052.8 1.472.191.46.349 1.063.515 1.7.42 1.603.942 3.598 2.501 5.157 1.56 1.557 3.555 2.078 5.159 2.498.642.168 1.243.325 1.702.516.42.174.932.477 1.473.798 1.44.855 3.232 1.919 5.513 1.919 2.283 0 4.075-1.064 5.514-1.919.544-.322 1.055-.625 1.472-.798.46-.191 1.061-.348 1.697-.515 1.61-.42 3.606-.942 5.164-2.5 1.56-1.558 2.082-3.552 2.502-5.155.166-.638.325-1.24.516-1.7.174-.42.478-.932.8-1.472.854-1.44 1.918-3.23 1.918-5.51s-1.064-4.07-1.918-5.508c-.322-.542-.626-1.054-.8-1.473-.191-.46-.35-1.063-.516-1.7-.42-1.605-.943-3.599-2.502-5.156-1.558-1.559-3.554-2.08-5.159-2.5-.638-.166-1.24-.325-1.701-.515-.42-.174-.932-.478-1.473-.8-1.44-.854-3.231-1.917-5.514-1.917-2.281 0-4.072 1.063-5.513 1.917m-1.947 10.84c-.263-.066-.532-.152-.735-.334-.84-.751.534-1.272 1.109-1.412 2.876-.694 5.836-1.017 8.793-1.057 1.607-.02 3.229.043 4.79.425.701.172 1.403.418 1.965.874.273.222.518.514.563.863.043.349-.188.746-.537.779a1.165 1.165 0 01-.362-.045c-.188-.043-.372-.087-.524.017-.192.13-.194.41-.14.636.322 1.315 1.795 2.077 2.201 3.37.054.17.08.372-.032.51-.093.113-.25.145-.394.17-.672.113-1.35.228-2.031.2-.682-.027-1.376-.208-1.911-.63-.781-.615-1.114-1.632-1.738-2.405-.673-.835-1.666-1.35-2.713-1.616a6.659 6.659 0 00-.626-.128c-1.268-.203-2.561-.102-3.844-.028-.509.03-1.021.054-1.532.054-.777 0-1.55-.057-2.302-.244m2.357 6.782c-.368-.101-.754-.229-1.002-.52-.487-.57-.274-1.629.176-2.158.505-.592 1.363-.81 2.092-.953 1.297-.255 2.62-.37 3.94-.344.545.012 1.122.057 1.567.374.515.367.736 1.014.926 1.617.035.11.07.225.077.339a.56.56 0 01-.015.178c-.042.162-.167.289-.291.4-.977.878-2.27 1.355-3.577 1.485-.274.028-.548.04-.822.04-1.035 0-2.07-.182-3.07-.458m16.275 4.657a.492.492 0 01-.21-.1c-.358-.25-.7-.538-.932-.909-.668-1.07-.607-2.915.394-3.744a.39.39 0 01.187-.1c.101-.014.197.044.278.108.75.582 1.014 1.587 1.16 2.526.046.302.086.61.069.914-.006.1-.018.2-.04.3-.08.398-.313.786-.682.957a.437.437 0 01-.187.05c-.012 0-.024 0-.037-.002m-7.114.456a3.527 3.527 0 01-.775-.082 28.55 28.55 0 01-1.721-.456 2.79 2.79 0 01-.701-.331c-.214-.139-.302-.367-.285-.629.014-.194.022-.389.033-.594 0-.184.006-.379-.001-.574-.01-.271.07-.518.267-.696a3.42 3.42 0 01.674-.498c.597-.318 1.207-.61 1.815-.905.54-.262 1.099-.317 1.673-.127.448.148.893.301 1.337.46.528.188.846.54.86 1.125.006.339.015.677.03 1.015.024.577-.255.979-.739 1.249-.474.264-.958.51-1.438.763-.32.17-.66.28-1.02.28h-.009m2.586 5.104c-.413-.204-.814-.434-1.222-.648-.405-.212-.56-.544-.443-.983.134-.505.27-1.01.413-1.511.124-.438.41-.76.789-.986a46.42 46.42 0 011.821-1.026c.38-.204.764-.21 1.124.074.226.178.457.348.69.516.393.28.497.679.442 1.126a35.37 35.37 0 01-.234 1.565c-.082.48-.324.86-.756 1.102-.433.244-.867.486-1.302.725a2.07 2.07 0 01-.763.235c-.187-.061-.385-.102-.559-.19" fill="url(#a)" mask="url(#b)" transform="translate(0 .369)"/><g fill="#000"><path d="M69.984 10.076c-.409.013-.8.1-1.13.34-.277.2-.476.488-.67.769l-5.988 8.679-5.477-7.917c-.401-.58-.817-1.175-1.41-1.557a2.13 2.13 0 00-1.217-.351c-.284.011-.801.089-.859.43-.04.245-.005.525-.005.774a80745.984 80745.984 0 00-.004 2.46 2586.736 2586.736 0 00.011 13.116l.002.459 3.336-.004.037-9.592 4.44 6.33c.298.424.713.9 1.224.81.287-.052.508-.276.701-.495 1.771-2.012 2.916-4.53 4.785-6.451l.05 9.385h3.359l-.004-17.074c-.383-.064-.79-.122-1.18-.11m34.485 9.592c.198-1.555 1.526-2.63 3.212-2.622 1.614.007 2.851 1.075 3.008 2.622zm6.389-4.602c-2.404-1.267-5.796-.907-7.705.893-2.195 2.067-2.634 4.647-1.739 7.4.898 2.761 3.043 4.042 5.868 4.23 2.22.148 4.256-.414 6.16-1.72l-1.263-2.246c-4.123 1.966-7.335 1.354-7.7-1.449h9.308c.069-.256.14-.439.165-.628.365-2.718-.874-5.308-3.094-6.48z"/><path d="M126.31 14.657c-.533-.012-1.067-.022-1.6-.031-.303-.005-.622-.006-.884.145-.366.21-.52.648-.647 1.05a150.145 150.145 0 01-2.432 7.061c-.993-2.517-2-5.03-3.017-7.536-.085-.208-.18-.43-.367-.552-.181-.12-.412-.124-.629-.124l-1.627-.001h-.813c-.13 0-.26-.005-.39 0-.151.003-.185 0-.143.147.072.254.224.508.33.75l.331.75.66 1.5 2.643 5.999 1.057 2.399c.16.364.324.74.326 1.138.003.395-.157.778-.38 1.104-.82 1.195-2.581 1.623-3.858.937l-.551 2.69c1.312.728 2.965.893 4.334.279 1.012-.455 1.812-1.293 2.403-2.23.59-.938.99-1.98 1.387-3.016l4.767-12.437-.9-.022M79.532 24.62c-1.99.026-3.547-1.612-3.524-3.706.021-1.99 1.567-3.547 3.517-3.542 1.925.004 3.496 1.607 3.503 3.574.006 2.033-1.533 3.65-3.496 3.675m-.007-10.3c-3.92.007-6.806 2.815-6.812 6.629-.006 3.87 2.884 6.716 6.821 6.716 3.894 0 6.799-2.898 6.782-6.766-.016-3.735-2.96-6.586-6.791-6.58m73.564 10.3c-1.974-.03-3.473-1.63-3.457-3.692.015-1.99 1.554-3.552 3.503-3.556 1.958-.004 3.542 1.636 3.516 3.641-.026 2.03-1.614 3.638-3.562 3.608m.106-10.3c-3.92-.018-6.836 2.782-6.856 6.583-.02 3.883 2.844 6.743 6.774 6.762 3.907.019 6.802-2.831 6.83-6.72.025-3.72-2.917-6.608-6.748-6.625m-56.631.261c-2.055-.615-3.951-.295-5.417 1.458-.042.05-.132.062-.23.107l-.064-1.426h-3.127v12.573h3.263v-.937c.007-2.05-.022-4.1.033-6.148.047-1.712 1.227-2.859 2.82-2.863 1.624-.004 2.64 1.02 2.681 2.825.049 2.076.022 4.154.027 6.232v.887h3.267c0-2.87.1-5.694-.034-8.507-.098-2.039-1.192-3.594-3.219-4.2m76.87 4.416c-.077-2.068-1.088-3.64-3.115-4.387-1.974-.728-4.06-.206-5.468 1.32-.076.082-.179.14-.308.24l-.07-1.47h-3.097v12.58h3.238v-1.04c.01-2.077-.033-4.157.05-6.23.064-1.625 1.323-2.7 2.92-2.664 1.501.033 2.467 1.043 2.566 2.689.02.331.023.664.024.997.002 1.8.001 3.6.001 5.4v.845h3.284c0-2.802.078-5.544-.025-8.28m-41.717-8.81h-3.366v17.099h12.086v-3.296h-8.72z"/><path d="M141.769 26.925h3.203v-12.58h-3.203zm1.617-18.08c-1.176.008-2.066.91-2.029 2.056.037 1.127.916 1.96 2.055 1.944 1.148-.015 1.969-.855 1.969-2.013-.001-1.143-.855-1.994-1.995-1.987m30.849 3.82c-1.034 0-1.787-.81-1.787-1.829 0-1.004.753-1.827 1.772-1.827 1.02 0 1.76.823 1.76 1.841 0 1.005-.74 1.815-1.745 1.815m-.015-4.117c-1.312 0-2.36 1.019-2.36 2.288 0 1.299 1.048 2.317 2.36 2.317 1.328 0 2.347-1.018 2.347-2.317 0-1.27-1.02-2.288-2.347-2.288" mask="url(#c)" transform="translate(0 .369)"/><path d="M174.123 10.74h-.251v-.657c.055-.014.153-.028.293-.028.335 0 .489.14.489.35 0 .236-.238.334-.531.334m.628.167v-.027c.28-.085.475-.28.475-.53a.636.636 0 00-.224-.503c-.167-.098-.362-.168-.795-.168-.378 0-.67.028-.88.07v2.289h.53v-.921h.252c.293 0 .433.111.475.363.07.264.111.474.181.558h.573c-.056-.084-.098-.223-.167-.572-.07-.307-.196-.475-.42-.559" mask="url(#c)" transform="translate(0 .369)"/></g></g></svg>