<svg xmlns="http://www.w3.org/2000/svg" width="100.62" height="17.999" viewBox="0 0 100.62 17.999"><defs><style>.a{fill:#265466;}</style></defs><g transform="translate(-38.688 -33.563)"><g transform="translate(134.163 37.13)"><path class="a" d="M293.411,45.633V43.355h-.786v-.305h1.9v.305h-.786v2.278Z" transform="translate(-292.625 -43.049)"/><path class="a" d="M301.462,45.633V43.8l-.916,1.21H300.3l-.916-1.21v1.83h-.326V43.049h.222l1.141,1.58,1.141-1.58h.222v2.584Z" transform="translate(-296.642 -43.049)"/></g><path class="a" d="M86.939,42.707c-3.844,0-6.742,3.118-6.742,7.252a6.939,6.939,0,0,0,7.282,7.222,7.557,7.557,0,0,0,5.42-2.164l.036-.037-1.707-1.807-.04.037a5.438,5.438,0,0,1-3.618,1.5A4.134,4.134,0,0,1,83.3,50.954l-.038-.374H93.429l0-.049a6.612,6.612,0,0,0,.038-.723C93.471,45.826,90.6,42.707,86.939,42.707Zm0,2.472a3.263,3.263,0,0,1,3.218,2.859l.034.37H83.43l.053-.385A3.508,3.508,0,0,1,86.939,45.179Z" transform="translate(-25.903 -5.706)"/><path class="a" d="M179.49,57.217a7.184,7.184,0,1,1,7.348-7.167A7.182,7.182,0,0,1,179.49,57.217Zm0-11.552a4.372,4.372,0,1,0,4.234,4.385A4.217,4.217,0,0,0,179.49,45.665Z" transform="translate(-83.278 -5.797)"/><path class="a" d="M229.284,44.924a5.975,5.975,0,0,0-4.656-2.217,5.8,5.8,0,0,0-3.8,1.393l-.543.451V43.007H217.3V56.881h3.136V47.66l.062-.089a4.82,4.82,0,0,1,3.721-1.942,3.258,3.258,0,0,1,2.37.91,3.923,3.923,0,0,1,.944,2.97v7.372h3.136V49.809A7.176,7.176,0,0,0,229.284,44.924Z" transform="translate(-111.458 -5.706)"/><path class="a" d="M265.506,48.711l-2.079-.446a1.849,1.849,0,0,1-1.735-1.784,2.158,2.158,0,0,1,2.36-1.943,2.706,2.706,0,0,1,2.765,1.834l.016.047,2.41-.543-.014-.055a4.163,4.163,0,0,0-1.559-2.292,5.976,5.976,0,0,0-3.647-1.055c-2.816,0-5.023,1.9-5.023,4.336,0,2,1.334,3.393,3.755,3.929l1.934.446c1.708.359,1.963,1.345,1.963,1.9,0,.966-.748,1.942-2.42,1.942a2.911,2.911,0,0,1-3.061-2.1l-.015-.049-2.478.543.013.054a4.447,4.447,0,0,0,1.646,2.494,6.348,6.348,0,0,0,3.924,1.15c3.6,0,5.232-2.263,5.232-4.365C269.493,50.708,268.04,49.233,265.506,48.711Z" transform="translate(-137.279 -5.561)"/><path class="a" d="M45.067,57.381,38.688,43.508H41.76l4.3,9.666,4.3-9.666h3.072L47.05,57.381Z" transform="translate(0 -6.206)"/><path class="a" d="M137.527,37.59h-3.819l0-4v-.031h-3.061V37.59h-6.316l0-4v-.031h-3.061V37.59h-1.9v2.687h1.9l0,5.919a9.961,9.961,0,0,0,.079,1.207,4.435,4.435,0,0,0,4.05,3.944c.708.056,1.435.061,2.12.061h.632V48.374h-1.72a1.91,1.91,0,0,1-2.089-2.094l-.006-6h6.313l0,5.919a9.961,9.961,0,0,0,.079,1.207,4.435,4.435,0,0,0,4.049,3.944c.709.056,1.436.061,2.12.061h.632V48.374h-1.72a1.91,1.91,0,0,1-2.089-2.094l-.006-6h3.815Z" transform="translate(-50.342 0)"/></g></svg>