<?xml version="1.0" encoding="utf-8"?>
<!-- Generator: Adobe Illustrator 24.1.0, SVG Export Plug-In . SVG Version: 6.00 Build 0)  -->
<svg version="1.1" id="Layer_1" xmlns="http://www.w3.org/2000/svg" xmlns:xlink="http://www.w3.org/1999/xlink" x="0px" y="0px"
	 viewBox="0 0 22.9 18" style="enable-background:new 0 0 22.9 18;" xml:space="preserve">
<style type="text/css">
	.st0{fill:#404853;}
</style>
<g>
	<path class="st0" d="M0.7,0.1c0.3,0,0.7,0,1,0.1c0.8,0.1,1.6,0.2,2.4,0.4c0.8,0.2,1.5,0.5,2.2,1c0.5,0.3,0.7,0.7,1,1.2
		C7.5,3.2,7.8,3.6,8,4c0.1,0.2,0.2,0.4,0.3,0.6l2,3.6c0.2,0.3,0.3,0.6,0.3,1V18L3.2,4.7L0.7,0.1z"/>
	<path class="st0" d="M22.2,0.1c-0.3,0-0.7,0-1,0.1c-0.8,0.1-1.6,0.2-2.4,0.4c-0.8,0.2-1.5,0.5-2.2,1c-0.5,0.3-0.7,0.7-1,1.2
		c-0.2,0.4-0.5,0.8-0.7,1.3c-0.1,0.2-0.2,0.4-0.3,0.6l-2,3.6c-0.2,0.3-0.3,0.6-0.3,1V18l7.4-13.3L22.2,0.1z"/>
</g>
</svg>
